<svg id="visual" viewBox="0 0 900 600" width="900" height="600" xmlns="http://www.w3.org/2000/svg" xmlns:xlink="http://www.w3.org/1999/xlink" version="1.1"><rect x="0" y="0" width="900" height="600" fill="#140021"></rect><path d="M430 0L382 0L382 86L391 86L391 171L452 171L452 257L468 257L468 343L333 343L333 429L433 429L433 514L394 514L394 600L0 600L0 514L0 514L0 429L0 429L0 343L0 343L0 257L0 257L0 171L0 171L0 86L0 86L0 0L0 0Z" fill="#9900ff"></path><path d="M356 0L205 0L205 86L211 86L211 171L237 171L237 257L254 257L254 343L319 343L319 429L371 429L371 514L311 514L311 600L0 600L0 514L0 514L0 429L0 429L0 343L0 343L0 257L0 257L0 171L0 171L0 86L0 86L0 0L0 0Z" fill="#7700c6"></path><path d="M90 0L198 0L198 86L101 86L101 171L216 171L216 257L188 257L188 343L126 343L126 429L208 429L208 514L178 514L178 600L0 600L0 514L0 514L0 429L0 429L0 343L0 343L0 257L0 257L0 171L0 171L0 86L0 86L0 0L0 0Z" fill="#560090"></path></svg>