<svg id="visual" viewBox="0 0 900 600" width="900" height="600" xmlns="http://www.w3.org/2000/svg" xmlns:xlink="http://www.w3.org/1999/xlink" version="1.1"><rect width="900" height="600" fill="#ffffff"></rect><g><g transform="translate(110 18)"><path d="M0 -13.1L11.4 -6.6L11.4 6.6L0 13.1L-11.4 6.6L-11.4 -6.6Z" fill="none" stroke="#F7770F" stroke-width="2"></path></g><g transform="translate(613 37)"><path d="M0 -11L9.5 -5.5L9.5 5.5L0 11L-9.5 5.5L-9.5 -5.5Z" fill="none" stroke="#F7770F" stroke-width="2"></path></g><g transform="translate(341 394)"><path d="M0 -9L7.8 -4.5L7.8 4.5L0 9L-7.8 4.5L-7.8 -4.5Z" fill="none" stroke="#F7770F" stroke-width="2"></path></g><g transform="translate(684 227)"><path d="M0 -7L6.1 -3.5L6.1 3.5L0 7L-6.1 3.5L-6.1 -3.5Z" fill="none" stroke="#F7770F" stroke-width="2"></path></g><g transform="translate(134 333)"><path d="M0 -6L5.2 -3L5.2 3L0 6L-5.2 3L-5.2 -3Z" fill="none" stroke="#F7770F" stroke-width="2"></path></g><g transform="translate(428 245)"><path d="M0 -12L10.4 -6L10.4 6L0 12L-10.4 6L-10.4 -6Z" fill="none" stroke="#F7770F" stroke-width="2"></path></g><g transform="translate(501 368)"><path d="M0 -11L9.5 -5.5L9.5 5.5L0 11L-9.5 5.5L-9.5 -5.5Z" fill="none" stroke="#F7770F" stroke-width="2"></path></g><g transform="translate(888 457)"><path d="M0 -9L7.8 -4.5L7.8 4.5L0 9L-7.8 4.5L-7.8 -4.5Z" fill="none" stroke="#F7770F" stroke-width="2"></path></g><g transform="translate(203 180)"><path d="M0 -7L6.1 -3.5L6.1 3.5L0 7L-6.1 3.5L-6.1 -3.5Z" fill="none" stroke="#F7770F" stroke-width="2"></path></g><g transform="translate(722 485)"><path d="M0 -10L8.7 -5L8.7 5L0 10L-8.7 5L-8.7 -5Z" fill="none" stroke="#F7770F" stroke-width="2"></path></g><g transform="translate(68 50)"><path d="M0 -10L8.7 -5L8.7 5L0 10L-8.7 5L-8.7 -5Z" fill="none" stroke="#F7770F" stroke-width="2"></path></g><g transform="translate(891 148)"><path d="M0 -12L10.4 -6L10.4 6L0 12L-10.4 6L-10.4 -6Z" fill="none" stroke="#F7770F" stroke-width="2"></path></g><g transform="translate(623 306)"><path d="M0 -10L8.7 -5L8.7 5L0 10L-8.7 5L-8.7 -5Z" fill="none" stroke="#F7770F" stroke-width="2"></path></g><g transform="translate(293 559)"><path d="M0 -9L7.8 -4.5L7.8 4.5L0 9L-7.8 4.5L-7.8 -4.5Z" fill="none" stroke="#F7770F" stroke-width="2"></path></g><g transform="translate(189 57)"><path d="M0 -7L6.1 -3.5L6.1 3.5L0 7L-6.1 3.5L-6.1 -3.5Z" fill="none" stroke="#F7770F" stroke-width="2"></path></g><g transform="translate(382 261)"><path d="M0 -10L8.7 -5L8.7 5L0 10L-8.7 5L-8.7 -5Z" fill="none" stroke="#F7770F" stroke-width="2"></path></g><g transform="translate(726 412)"><path d="M0 -6L5.2 -3L5.2 3L0 6L-5.2 3L-5.2 -3Z" fill="none" stroke="#F7770F" stroke-width="2"></path></g><g transform="translate(441 196)"><path d="M0 -6L5.2 -3L5.2 3L0 6L-5.2 3L-5.2 -3Z" fill="none" stroke="#F7770F" stroke-width="2"></path></g><g transform="translate(499 31)"><path d="M0 -7L6.1 -3.5L6.1 3.5L0 7L-6.1 3.5L-6.1 -3.5Z" stroke="#F7770F" fill="none" stroke-width="2"></path></g><g transform="translate(62 301)"><path d="M0 -8L6.9 -4L6.9 4L0 8L-6.9 4L-6.9 -4Z" stroke="#F7770F" fill="none" stroke-width="2"></path></g><g transform="translate(518 74)"><path d="M0 -7L6.1 -3.5L6.1 3.5L0 7L-6.1 3.5L-6.1 -3.5Z" stroke="#F7770F" fill="none" stroke-width="2"></path></g><g transform="translate(628 432)"><path d="M0 -8L6.9 -4L6.9 4L0 8L-6.9 4L-6.9 -4Z" stroke="#F7770F" fill="none" stroke-width="2"></path></g><g transform="translate(116 364)"><path d="M0 -12L10.4 -6L10.4 6L0 12L-10.4 6L-10.4 -6Z" stroke="#F7770F" fill="none" stroke-width="2"></path></g><g transform="translate(471 25)"><path d="M0 -12L10.4 -6L10.4 6L0 12L-10.4 6L-10.4 -6Z" stroke="#F7770F" fill="none" stroke-width="2"></path></g><g transform="translate(697 265)"><path d="M0 -6L5.2 -3L5.2 3L0 6L-5.2 3L-5.2 -3Z" stroke="#F7770F" fill="none" stroke-width="2"></path></g><g transform="translate(105 251)"><path d="M0 -6L5.2 -3L5.2 3L0 6L-5.2 3L-5.2 -3Z" stroke="#F7770F" fill="none" stroke-width="2"></path></g><g transform="translate(407 415)"><path d="M0 -9L7.8 -4.5L7.8 4.5L0 9L-7.8 4.5L-7.8 -4.5Z" stroke="#F7770F" fill="none" stroke-width="2"></path></g><g transform="translate(801 141)"><path d="M0 -11L9.5 -5.5L9.5 5.5L0 11L-9.5 5.5L-9.5 -5.5Z" stroke="#F7770F" fill="none" stroke-width="2"></path></g><g transform="translate(790 27)"><path d="M0 -8L6.9 -4L6.9 4L0 8L-6.9 4L-6.9 -4Z" stroke="#F7770F" fill="none" stroke-width="2"></path></g><g transform="translate(328 110)"><path d="M0 -11L9.5 -5.5L9.5 5.5L0 11L-9.5 5.5L-9.5 -5.5Z" stroke="#F7770F" fill="none" stroke-width="2"></path></g><g transform="translate(92 377)"><path d="M0 -11L9.5 -5.5L9.5 5.5L0 11L-9.5 5.5L-9.5 -5.5Z" stroke="#F7770F" fill="none" stroke-width="2"></path></g><g transform="translate(202 470)"><path d="M0 -6L5.2 -3L5.2 3L0 6L-5.2 3L-5.2 -3Z" stroke="#F7770F" fill="none" stroke-width="2"></path></g><g transform="translate(298 487)"><path d="M0 -11L9.5 -5.5L9.5 5.5L0 11L-9.5 5.5L-9.5 -5.5Z" stroke="#F7770F" fill="none" stroke-width="2"></path></g><g transform="translate(581 190)"><path d="M0 -7L6.1 -3.5L6.1 3.5L0 7L-6.1 3.5L-6.1 -3.5Z" stroke="#F7770F" fill="none" stroke-width="2"></path></g><g transform="translate(162 278)"><path d="M0 -9L7.8 -4.5L7.8 4.5L0 9L-7.8 4.5L-7.8 -4.5Z" stroke="#F7770F" fill="none" stroke-width="2"></path></g><g transform="translate(848 300)"><path d="M0 -11L9.5 -5.5L9.5 5.5L0 11L-9.5 5.5L-9.5 -5.5Z" stroke="#F7770F" fill="none" stroke-width="2"></path></g><g transform="translate(625 365)"><path d="M0 -9L7.8 -4.5L7.8 4.5L0 9L-7.8 4.5L-7.8 -4.5Z" stroke="#F7770F" fill="none" stroke-width="2"></path></g><g transform="translate(187 565)"><path d="M0 -12L10.4 -6L10.4 6L0 12L-10.4 6L-10.4 -6Z" stroke="#F7770F" fill="none" stroke-width="2"></path></g><g transform="translate(433 366)"><path d="M0 -6L5.2 -3L5.2 3L0 6L-5.2 3L-5.2 -3Z" stroke="#F7770F" fill="none" stroke-width="2"></path></g><g transform="translate(659 454)"><path d="M0 -10L8.7 -5L8.7 5L0 10L-8.7 5L-8.7 -5Z" stroke="#F7770F" fill="none" stroke-width="2"></path></g><g transform="translate(849 458)"><path d="M0 -6L5.2 -3L5.2 3L0 6L-5.2 3L-5.2 -3Z" stroke="#F7770F" fill="none" stroke-width="2"></path></g></g></svg>