<svg id="visual" viewBox="0 0 900 600" width="900" height="600" xmlns="http://www.w3.org/2000/svg" xmlns:xlink="http://www.w3.org/1999/xlink" version="1.1"><rect x="0" y="0" width="900" height="600" fill="#140021"></rect><path d="M0 492L21.5 474.3C43 456.7 86 421.3 128.8 424.5C171.7 427.7 214.3 469.3 257.2 483C300 496.7 343 482.3 385.8 479.8C428.7 477.3 471.3 486.7 514.2 475.2C557 463.7 600 431.3 642.8 411.5C685.7 391.7 728.3 384.3 771.2 396.2C814 408 857 439 878.5 454.5L900 470L900 601L878.5 601C857 601 814 601 771.2 601C728.3 601 685.7 601 642.8 601C600 601 557 601 514.2 601C471.3 601 428.7 601 385.8 601C343 601 300 601 257.2 601C214.3 601 171.7 601 128.8 601C86 601 43 601 21.5 601L0 601Z" fill="#9900FF" stroke-linecap="round" stroke-linejoin="miter"></path></svg>